<svg xmlns="http://www.w3.org/2000/svg" width="300" height="174" viewBox="0 0 300 174"><path stroke="#F68C44" stroke-width="2" stroke-miterlimit="10" d="M878.333 9.586H661.667c-3.178 0-5.777 2.6-5.777 5.776V151.47h228.22V15.36c0-3.176-2.6-5.776-5.777-5.776z" fill="none"/><path fill="#5386C5" d="M76.333-529.52h258v258h-258z"/><circle fill="#E6E7E8" cx="486.333" cy="-401.519" r="127"/><path fill="#fff" stroke="#000" stroke-miterlimit="10" d="M391.333-353.563c0 2.046 1.83 3.702 4.083 3.702h181.832c2.254 0 4.085-1.657 4.085-3.703v-4.203h-190v4.203z"/><path fill="#D1D3D4" stroke="#000" stroke-miterlimit="10" d="M476.136-355.718h20.396c1.245 0 2.256-.917 2.256-2.05H473.88c0 1.133 1.01 2.05 2.256 2.05zM395.417-349.86H577.25c2.253 0 4.084-1.657 4.084-3.703h-190c0 2.045 1.83 3.702 4.083 3.702zM552.32-452.33H420.346c-5.57 0-10.086 4.514-10.086 10.087v84.477h152.146v-84.477c0-5.573-4.515-10.086-10.086-10.086z"/><path fill="#fff" stroke="#000" stroke-miterlimit="10" d="M420.346-442.243H552.32v74.39H420.346z"/><g fill="#E6E7E8" stroke="#000" stroke-miterlimit="10"><path d="M468.292-419.14l-4.45-4.445-18.544 18.536 18.543 18.536 4.452-4.445-14.09-14.09zM527.368-405.05l-18.542-18.535-4.452 4.445 14.09 14.09-14.09 14.09 4.452 4.446zM498.66-422.856l-19.623 36.342h-6.293l19.623-36.342z"/></g><path stroke="#F68C44" stroke-width="2" stroke-miterlimit="10" d="M627.5 157.702c0 3.066 2.76 5.56 6.124 5.56h272.75c3.365 0 6.126-2.493 6.126-5.56v-6.232h-285v6.232zM754.968 154.484h30.065c1.812 0 3.307-1.357 3.307-3.015h-36.68c0 1.657 1.496 3.014 3.308 3.014zM633.625 163.26h272.75c3.365 0 6.126-2.49 6.126-5.558h-285c0 3.067 2.76 5.56 6.125 5.56zM666.22 19.86h207.56v121.225H666.22z" fill="none"/><g stroke="#F68C44" stroke-width="2" stroke-miterlimit="10" fill="none"><path d="M746.51 62.167l-5.78-5.802-24.168 24.16 24.167 24.162 5.78-5.8-18.36-18.36zM823.438 80.526l-24.167-24.16-5.78 5.8 18.36 18.36-18.36 18.36 5.78 5.8zM786.05 57.296l-25.555 47.39h-8.178l25.53-47.39z"/></g><path fill="#eee" d="M118.517-358.203c0 1.604 1.673 2.903 3.73 2.903h166.17c2.06 0 3.732-1.3 3.732-2.903v-3.296H118.516v3.297z"/><path fill="#ccc" d="M196.015-359.893h18.64c1.136 0 2.06-.72 2.06-1.606h-22.762c0 .89.923 1.607 2.062 1.607zM122.25-355.3h166.167c2.06 0 3.733-1.3 3.733-2.903H118.517c0 1.604 1.673 2.903 3.732 2.903z"/><path fill="#1D1E1F" d="M265.636-447.916H145.03c-5.09 0-9.217 4.124-9.217 9.218V-361.498h139.04v-77.2c0-5.094-4.126-9.218-9.217-9.218z"/><path fill="#E2725A" d="M145.03-438.698h120.605v67.98H145.03z"/><g fill="#fff"><path d="M184.78-421.647l-16.947 16.94 16.946 16.937 4.066-4.062-12.877-12.876 12.876-12.877zM221.82-417.585l12.877 12.877-12.877 12.876 4.068 4.062 16.945-16.938-16.945-16.94zM192.915-387.77h5.75l17.933-33.21h-5.75z"/></g><linearGradient id="a" gradientUnits="userSpaceOnUse" x1="191.091" y1="-405.457" x2="328.423" y2="-268.125"><stop offset="0"/><stop offset="1" stop-opacity="0"/></linearGradient><path opacity=".25" fill="url(#a)" d="M333.333-383.988c-.37-.4-.76-.778-1.197-1.108-.513-.678-1.116-1.28-1.793-1.793-.513-.676-1.115-1.277-1.79-1.79-.514-.678-1.117-1.28-1.795-1.795-.513-.677-1.115-1.28-1.792-1.792-.513-.677-1.115-1.28-1.792-1.792-.513-.676-1.115-1.278-1.792-1.79-.513-.68-1.116-1.28-1.793-1.794-.514-.68-1.117-1.28-1.795-1.794-.512-.677-1.114-1.278-1.79-1.79-.514-.678-1.116-1.28-1.793-1.794-.513-.678-1.117-1.28-1.794-1.794-.513-.677-1.115-1.278-1.79-1.79-.514-.68-1.117-1.28-1.795-1.795-.512-.677-1.114-1.28-1.79-1.792-.514-.678-1.117-1.28-1.794-1.793-.514-.678-1.116-1.28-1.793-1.792-.513-.678-1.116-1.28-1.793-1.793-.513-.678-1.116-1.28-1.793-1.794-.51-.677-1.113-1.278-1.79-1.79-.514-.68-1.117-1.28-1.794-1.794-.513-.678-1.115-1.28-1.792-1.792-.513-.678-1.116-1.28-1.794-1.794-.512-.677-1.114-1.278-1.79-1.79-.513-.678-1.116-1.28-1.793-1.794-.513-.678-1.115-1.28-1.792-1.793-.513-.678-1.115-1.28-1.792-1.793-.513-.678-1.116-1.28-1.793-1.793-.513-.678-1.115-1.28-1.792-1.792-.513-.678-1.116-1.28-1.793-1.794-.512-.677-1.114-1.278-1.79-1.79-.514-.68-1.117-1.28-1.794-1.795-.512-.678-1.115-1.28-1.792-1.793-.512-.676-1.114-1.278-1.79-1.79-1.684-2.224-4.344-3.666-7.347-3.666H145.03c-5.09 0-9.217 4.124-9.217 9.218V-361.498h-17.296v3.295c0 1.092.784 2.03 1.928 2.526.26.773.916 1.413 1.793 1.793.26.772.916 1.412 1.792 1.792.26.773.916 1.413 1.793 1.793.26.773.916 1.414 1.792 1.794.26.772.917 1.413 1.793 1.792.26.773.916 1.412 1.792 1.792.26.773.916 1.413 1.793 1.793.26.774.916 1.414 1.792 1.794.26.772.916 1.412 1.792 1.792.26.773.916 1.413 1.793 1.793.26.772.916 1.412 1.792 1.792.26.772.917 1.413 1.793 1.792.26.772.916 1.413 1.792 1.793.26.772.917 1.412 1.793 1.792.26.772.916 1.412 1.792 1.792.26.773.917 1.413 1.793 1.793.26.772.916 1.412 1.792 1.792.26.773.916 1.413 1.793 1.793.26.772.916 1.412 1.792 1.792.26.773.917 1.413 1.793 1.793.26.773.916 1.412 1.792 1.792.26.773.916 1.413 1.793 1.793.26.772.916 1.412 1.792 1.792.26.773.916 1.413 1.793 1.793.26.773.916 1.413 1.792 1.793.26.772.916 1.412 1.792 1.792.26.773.915 1.413 1.79 1.793.262.772.917 1.412 1.793 1.792.26.773.916 1.413 1.793 1.793.26.773.916 1.413 1.792 1.792.26.773.916 1.413 1.792 1.793.26.773.916 1.413 1.793 1.793.26.772.916 1.413 1.792 1.792.26.773.916 1.413 1.792 1.793.26.774.916 1.414 1.793 1.794.26.773.916 1.413 1.792 1.792.26.773.916 1.413 1.792 1.792.26.773.916 1.413 1.793 1.793.26.774.916 1.414 1.792 1.794.26.773.916 1.413 1.792 1.793.26.773.916 1.413 1.792 1.793.26.77.916 1.41 1.792 1.79.26.774.916 1.414 1.793 1.794.26.773.915 1.413 1.79 1.793.26.773.917 1.412 1.793 1.793.26.772.916 1.412 1.792 1.792.085.25.225.48.387.7h130.043v-111.47z"/><path fill="#eee" d="M118.517-358.203c0 1.604 1.673 2.903 3.73 2.903h166.17c2.06 0 3.732-1.3 3.732-2.903v-3.296H118.516v3.297z"/><path fill="#ccc" d="M196.015-359.893h18.64c1.136 0 2.06-.72 2.06-1.606h-22.762c0 .89.923 1.607 2.062 1.607zM122.25-355.3h166.167c2.06 0 3.733-1.3 3.733-2.903H118.517c0 1.604 1.673 2.903 3.732 2.903z"/><path fill="#1D1E1F" d="M265.636-447.916H145.03c-5.09 0-9.217 4.124-9.217 9.218V-361.498h139.04v-77.2c0-5.094-4.126-9.218-9.217-9.218z"/><path fill="#E2725A" d="M145.03-438.698h120.605v67.98H145.03z"/><g fill="#fff"><path d="M184.78-421.647l-16.947 16.94 16.946 16.937 4.066-4.062-12.877-12.876 12.876-12.877zM221.82-417.585l12.877 12.877-12.877 12.876 4.068 4.062 16.945-16.938-16.945-16.94zM192.915-387.77h5.75l17.933-33.21h-5.75z"/></g><path fill="#eee" d="M-154.816-358.203c0 1.604 1.673 2.903 3.73 2.903h166.17c2.06 0 3.733-1.3 3.733-2.903v-3.296h-173.633v3.297z"/><path fill="#ccc" d="M-77.318-359.893h18.64c1.136 0 2.06-.72 2.06-1.606H-79.38c0 .89.923 1.607 2.062 1.607zM-151.084-355.3H15.084c2.06 0 3.733-1.3 3.733-2.903h-173.633c0 1.604 1.673 2.903 3.732 2.903z"/><path fill="#1D1E1F" d="M-7.697-447.916h-120.605c-5.09 0-9.217 4.124-9.217 9.218V-361.498H1.52v-77.2c0-5.094-4.126-9.218-9.217-9.218z"/><path fill="#E2725A" d="M-128.303-438.698H-7.698v67.98h-120.605z"/><g fill="#fff"><path d="M-88.554-421.647l-16.946 16.94 16.946 16.937 4.067-4.062-12.877-12.876 12.877-12.877zM-51.513-417.585l12.877 12.877-12.877 12.876 4.068 4.062 16.945-16.938-16.945-16.94zM-80.418-387.77h5.75l17.933-33.21h-5.75z"/></g><path fill="#eee" d="M-154.816-358.203c0 1.604 1.673 2.903 3.73 2.903h166.17c2.06 0 3.733-1.3 3.733-2.903v-3.296h-173.633v3.297z"/><path fill="#ccc" d="M-77.318-359.893h18.64c1.136 0 2.06-.72 2.06-1.606H-79.38c0 .89.923 1.607 2.062 1.607zM-151.084-355.3H15.084c2.06 0 3.733-1.3 3.733-2.903h-173.633c0 1.604 1.673 2.903 3.732 2.903z"/><path stroke="#3D4C99" stroke-width="2" stroke-miterlimit="10" d="M577.234 9.55H342.766c-3.173 0-5.766 2.592-5.766 5.765v9.488h246v-9.488c0-3.173-2.593-5.766-5.766-5.766z" fill="none"/><path fill="#1D1E1F" d="M-7.697-447.916h-120.605c-5.09 0-9.217 4.124-9.217 9.218V-361.498H1.52v-77.2c0-5.094-4.126-9.218-9.217-9.218z"/><path fill="#E2725A" d="M-128.303-438.698H-7.698v67.98h-120.605z"/><g fill="#fff"><path d="M-88.554-421.647l-16.946 16.94 16.946 16.937 4.067-4.062-12.877-12.876 12.877-12.877zM-51.513-417.585l12.877 12.877-12.877 12.876 4.068 4.062 16.945-16.938-16.945-16.94zM-80.418-387.77h5.75l17.933-33.21h-5.75z"/></g><path stroke="#3D4C99" stroke-width="2" stroke-miterlimit="10" d="M577.234 24.803H337v132.729c0 3.173 2.593 5.766 5.766 5.766h234.47c3.17 0 5.765-2.594 5.765-5.767V24.802h-5.766zM352.633 39.116h215.253v49.97H352.633zM352.633 101.263h65.344v46.92h-65.344zM502.542 101.263h65.344v46.92h-65.344zM427.107 101.263h66.305v46.92h-66.305zM347.958 17.423c0 1.6-1.29 2.884-2.883 2.884s-2.883-1.285-2.883-2.884c0-1.59 1.29-2.883 2.883-2.883 1.594 0 2.883 1.294 2.883 2.883zM357.91 17.423c0 1.6-1.29 2.884-2.883 2.884s-2.882-1.285-2.882-2.884c0-1.59 1.29-2.883 2.882-2.883 1.593 0 2.883 1.294 2.883 2.883zM367.86 17.423c0 1.6-1.29 2.884-2.883 2.884s-2.883-1.285-2.883-2.884c0-1.59 1.29-2.883 2.883-2.883 1.594 0 2.883 1.294 2.883 2.883z" fill="none"/><path stroke="#45A6DD" stroke-width="2" stroke-miterlimit="10" d="M1051.82 46.763h-13.228V151.29h13.23c2.157 0 3.927-1.77 3.927-3.932V50.69c0-2.162-1.77-3.927-3.93-3.927zM1006.655 46.763c-2.158 0-3.93 1.766-3.93 3.928v96.67c0 2.16 1.77 3.93 3.93 3.93h31.938V46.764h-31.938zM1003.45 28.815c-2.484 0-4.518 2.03-4.518 4.516v111.15c0 2.483 2.033 4.52 4.518 4.52h35.143V28.814h-35.143zM1012.176 42.31h26.416M1012.176 46.57h26.416M1012.176 50.833h26.416" fill="none"/><path stroke="#45A6DD" stroke-width="2" stroke-miterlimit="10" fill="none" d="M1012.176 113.507h26.416v4.52h-26.416zM1012.176 125.753h26.416v4.518h-26.416zM1012.176 101.263h26.416v4.518h-26.416zM1153.167 46.763h-31.76V151.29h31.76c2.158 0 3.93-1.77 3.93-3.932V50.69c0-2.162-1.772-3.927-3.93-3.927zM1108 46.763c-2.158 0-3.93 1.766-3.93 3.928v96.67c0 2.16 1.77 3.93 3.93 3.93h13.406V46.764H1108zM1156.55 28.815h-35.144V149h35.143c2.483 0 4.517-2.036 4.517-4.52V33.33c0-2.483-2.033-4.515-4.518-4.515zM1121.407 42.31h25.168M1121.407 46.57h25.168M1121.407 50.833h25.168"/><path stroke="#45A6DD" stroke-width="2" stroke-miterlimit="10" fill="none" d="M1114.41 113.507h6.997v4.52h-6.998zM1121.407 113.507h26.234v4.52h-26.233zM1121.407 125.753h26.234v4.518h-26.233zM1114.41 125.753h6.997v4.518h-6.998zM1114.41 101.263h6.997v4.518h-6.998zM1121.407 101.263h26.234v4.518h-26.233zM1116.223 165.3c0 2.95-2.418 5.37-5.37 5.37h-61.708c-2.95 0-5.37-2.42-5.37-5.37V33.216c0-2.95 2.42-5.363 5.37-5.363h61.71c2.95 0 5.368 2.412 5.368 5.363V165.3zM1115.27 3.33h-70.54c-3.374 0-6.138 2.757-6.138 6.132V160.44c0 3.373 2.764 6.14 6.14 6.14h70.538c3.375 0 6.137-2.767 6.137-6.14V9.462c0-3.375-2.762-6.133-6.137-6.133zM1056.58 22.724h45.143M1056.58 28.05h45.143M1056.58 33.378h45.143"/><path stroke="#45A6DD" stroke-width="2" stroke-miterlimit="10" fill="none" d="M1056.58 119.433h45.144v6.14h-45.143zM1056.58 136.065h45.144v6.14h-45.143zM1079.15 53.745c5.72 0 10.355 4.637 10.355 10.354 0 5.722-4.635 10.35-10.354 10.35s-10.35-4.628-10.35-10.35c0-5.718 4.632-10.355 10.35-10.355zM1073.59 63.868l3.866 3.86 7.253-7.258"/><path fill="#F0634A" d="M80.342 86h8.89v2h-8.89zM198.512 37.636c-13.184-13.188-30.714-20.45-49.36-20.45-18.648 0-36.178 7.263-49.362 20.45C86.604 50.82 79.34 68.35 79.34 87s7.263 36.18 20.45 49.364c13.184 13.188 30.714 20.45 49.36 20.45 18.647 0 36.178-7.263 49.362-20.45C211.7 123.18 218.96 105.65 218.96 87s-7.26-36.18-20.448-49.364zm-1.414 97.314c-12.807 12.81-29.834 19.864-47.947 19.864s-35.14-7.055-47.946-19.864C88.396 122.145 81.34 105.115 81.34 87s7.055-35.145 19.864-47.95c12.807-12.81 29.835-19.864 47.947-19.864S184.29 26.24 197.1 39.05C209.908 51.855 216.96 68.885 216.96 87s-7.053 35.145-19.862 47.95zM150.15 43.992h-2c0 23.095-18.733 41.897-41.804 42.008h-.204v2c9.616 0 18.482 3.257 25.57 8.714l1.112-1.666c-5.038-3.854-10.923-6.655-17.33-8.048 16.774-3.644 30.013-16.882 33.657-33.656 1.393 6.408 4.194 12.294 8.05 17.332l1.666-1.11c-5.458-7.09-8.715-15.957-8.715-25.574zM166.597 77.276l-1.118 1.678c5.035 3.856 10.92 6.654 17.33 8.047-16.775 3.646-30.014 16.883-33.658 33.66-1.392-6.41-4.19-12.298-8.048-17.335l-1.677 1.12c5.46 7.086 8.725 15.945 8.726 25.563h2c0-23.095 18.735-41.897 41.805-42.008h.204v-2c-9.62 0-18.48-3.264-25.565-8.724zM152.59 89.023c-.345.584-.83 1.068-1.412 1.413 0 0 0 .002-.002.002l3.706 3.703-15.885 10.59-.51.34.51-.34-22.73 15.152 15.25-22.87 2.114-3.173-2.114 3.17 10.492-15.734 3.705 3.703c.345-.586.83-1.07 1.413-1.417l-5.148-5.145-.846.564-.85 1.274.85-1.274-32.08 48.11 48.12-32.076.567-.85-5.15-5.143zM145.712 84.98c.345-.586.83-1.07 1.413-1.416-.583.345-1.068.83-1.413 1.415zM151.178 90.437c.583-.345 1.067-.83 1.412-1.413-.345.584-.83 1.068-1.412 1.413zM152.59 89.023zM151.176 90.438h.002zM152.59 89.023c-.346.584-.83 1.068-1.413 1.413.584-.344 1.068-.828 1.412-1.413zM145.712 84.98c.345-.586.83-1.07 1.413-1.416-.584.346-1.068.83-1.413 1.415zM147.126 83.563zM151.175 90.438zM141.132 78.982l-.567.85 5.148 5.146c.345-.584.83-1.068 1.414-1.414l-3.705-3.703 13.06-8.706 25.557-17.037-25.743 38.61-3.706-3.704c-.344.584-.828 1.07-1.413 1.415l5.148 5.146.846-.564.747-1.118-.746 1.118h.002l32.078-48.113-48.118 32.075zm23.467 1.29l3.305-4.957-3.306 4.958zM152.59 89.022c-.345.585-.83 1.07-1.414 1.415.585-.345 1.07-.83 1.414-1.415zM147.127 83.563c-.584.346-1.068.83-1.414 1.414.346-.583.83-1.068 1.414-1.414zM152.59 89.022zM152.59 89.022c-.345.585-.83 1.07-1.413 1.415.584-.345 1.068-.83 1.413-1.415zM145.713 84.978c.345-.584.83-1.068 1.414-1.414-.585.345-1.068.83-1.414 1.414zM197.098 37.638l1.415 1.414-3.144 3.143-1.415-1.414zM102.93 131.802l1.416 1.414-3.143 3.143-1.414-1.416zM195.375 131.8l3.142 3.144-1.414 1.414-3.142-3.143zM101.205 37.646l3.654 3.655-1.415 1.415-3.654-3.655zM148.15 20.277h2v8.62h-2z"/><path fill="#fff" stroke="#F0634A" stroke-width="2" stroke-miterlimit="10" d="M149.15 145.414v8.622"/><path fill="#F0634A" d="M209.07 86h8.89v2h-8.89zM206.425 29.73C191.128 14.427 170.787 6 149.15 6s-41.976 8.428-57.273 23.73C76.577 45.022 68.15 65.362 68.15 87s8.427 41.977 23.727 57.27C107.175 159.573 127.515 168 149.15 168s41.978-8.428 57.275-23.73c15.3-15.294 23.726-35.634 23.726-57.27s-8.425-41.977-23.725-57.27zm-1.414 113.127C190.09 157.78 170.254 166 149.15 166s-40.94-8.22-55.86-23.143C78.37 127.94 70.15 108.103 70.15 87s8.22-40.94 23.14-55.857C108.21 16.22 128.05 8 149.15 8s40.94 8.22 55.86 23.143C219.934 46.06 228.15 65.898 228.15 87s-8.217 40.94-23.14 55.857zM145.145 87c0-2.208 1.797-4.006 4.006-4.006v-2c-3.31 0-6.005 2.694-6.005 6.007 0 3.313 2.694 6.007 6.006 6.007v-2c-2.208 0-4.005-1.797-4.005-4.006zM153.158 87c0-2.208-1.797-4.006-4.006-4.006v-2c3.312 0 6.006 2.694 6.006 6.007 0 3.313-2.694 6.007-6.006 6.007v-2c2.208 0 4.006-1.797 4.006-4.006z"/></svg>