<svg xmlns="http://www.w3.org/2000/svg" width="300" height="174" viewBox="0 0 300 174"><path fill="#fff" stroke="#F68C44" stroke-width="2" stroke-miterlimit="10" d="M-51.667 9.586h-216.666c-3.178 0-5.777 2.6-5.777 5.776V151.47h228.22V15.36c0-3.176-2.6-5.776-5.777-5.776z"/><path fill="#5386C5" d="M-853.667-529.52h258v258h-258z"/><circle fill="#E6E7E8" cx="-443.667" cy="-401.519" r="127"/><path fill="#fff" stroke="#000" stroke-miterlimit="10" d="M-538.667-353.563c0 2.046 1.83 3.702 4.083 3.702h181.832c2.254 0 4.085-1.657 4.085-3.703v-4.203h-190v4.203z"/><path fill="#D1D3D4" stroke="#000" stroke-miterlimit="10" d="M-453.864-355.718h20.396c1.245 0 2.256-.917 2.256-2.05h-24.908c0 1.133 1.01 2.05 2.256 2.05zM-534.583-349.86h181.832c2.253 0 4.084-1.657 4.084-3.703h-190c0 2.045 1.83 3.702 4.083 3.702zM-377.68-452.33h-131.974c-5.57 0-10.086 4.514-10.086 10.087v84.477h152.146v-84.477c0-5.573-4.515-10.086-10.086-10.086z"/><path fill="#fff" stroke="#000" stroke-miterlimit="10" d="M-509.654-442.243h131.974v74.39h-131.974z"/><g fill="#E6E7E8" stroke="#000" stroke-miterlimit="10"><path d="M-461.708-419.14l-4.45-4.445-18.544 18.536 18.543 18.536 4.452-4.445-14.09-14.09zM-402.632-405.05l-18.542-18.535-4.452 4.445 14.09 14.09-14.09 14.09 4.452 4.446zM-431.34-422.856l-19.623 36.342h-6.293l19.623-36.342z"/></g><path fill="#fff" stroke="#F68C44" stroke-width="2" stroke-miterlimit="10" d="M-302.5 157.702c0 3.066 2.76 5.56 6.124 5.56h272.75c3.365 0 6.126-2.493 6.126-5.56v-6.232h-285v6.232zM-175.032 154.484h30.065c1.812 0 3.307-1.357 3.307-3.015h-36.68c0 1.657 1.496 3.014 3.308 3.014zM-296.375 163.26h272.75c3.365 0 6.126-2.49 6.126-5.558h-285c0 3.067 2.76 5.56 6.125 5.56zM-263.78 19.86h207.56v121.225h-207.56z"/><g fill="#fff" stroke="#F68C44" stroke-width="2" stroke-miterlimit="10"><path d="M-183.49 62.167l-5.78-5.802-24.168 24.16 24.167 24.162 5.78-5.8-18.36-18.36zM-106.562 80.526l-24.167-24.16-5.78 5.8 18.36 18.36-18.36 18.36 5.78 5.8zM-143.95 57.296l-25.555 47.39h-8.178l25.53-47.39z"/></g><path fill="#eee" d="M-811.483-358.203c0 1.604 1.673 2.903 3.73 2.903h166.17c2.06 0 3.732-1.3 3.732-2.903v-3.296h-173.634v3.297z"/><path fill="#ccc" d="M-733.985-359.893h18.64c1.136 0 2.06-.72 2.06-1.606h-22.762c0 .89.923 1.607 2.062 1.607zM-807.75-355.3h166.167c2.06 0 3.733-1.3 3.733-2.903h-173.633c0 1.604 1.673 2.903 3.732 2.903z"/><path fill="#1D1E1F" d="M-664.364-447.916H-784.97c-5.09 0-9.217 4.124-9.217 9.218V-361.498h139.04v-77.2c0-5.094-4.126-9.218-9.217-9.218z"/><path fill="#E2725A" d="M-784.97-438.698h120.605v67.98H-784.97z"/><g fill="#fff"><path d="M-745.22-421.647l-16.947 16.94 16.946 16.937 4.066-4.062-12.877-12.876 12.876-12.877zM-708.18-417.585l12.877 12.877-12.877 12.876 4.068 4.062 16.945-16.938-16.945-16.94zM-737.085-387.77h5.75l17.933-33.21h-5.75z"/></g><linearGradient id="a" gradientUnits="userSpaceOnUse" x1="-738.909" y1="-405.457" x2="-601.577" y2="-268.125"><stop offset="0"/><stop offset="1" stop-opacity="0"/></linearGradient><path opacity=".25" fill="url(#a)" d="M-596.667-383.988c-.37-.4-.76-.778-1.197-1.108-.513-.678-1.116-1.28-1.793-1.793-.513-.676-1.115-1.277-1.79-1.79-.514-.678-1.117-1.28-1.795-1.795-.513-.677-1.115-1.28-1.792-1.792-.513-.677-1.115-1.28-1.792-1.792-.513-.676-1.115-1.278-1.792-1.79-.513-.68-1.116-1.28-1.793-1.794-.514-.68-1.117-1.28-1.795-1.794-.512-.677-1.114-1.278-1.79-1.79-.514-.678-1.116-1.28-1.793-1.794-.513-.678-1.117-1.28-1.794-1.794-.513-.677-1.115-1.278-1.79-1.79-.514-.68-1.117-1.28-1.795-1.795-.512-.677-1.114-1.28-1.79-1.792-.514-.678-1.117-1.28-1.794-1.793-.514-.678-1.116-1.28-1.793-1.792-.513-.678-1.116-1.28-1.793-1.793-.513-.678-1.116-1.28-1.793-1.794-.51-.677-1.113-1.278-1.79-1.79-.514-.68-1.117-1.28-1.794-1.794-.513-.678-1.115-1.28-1.792-1.792-.513-.678-1.116-1.28-1.794-1.794-.512-.677-1.114-1.278-1.79-1.79-.513-.678-1.116-1.28-1.793-1.794-.513-.678-1.115-1.28-1.792-1.793-.513-.678-1.115-1.28-1.792-1.793-.513-.678-1.116-1.28-1.793-1.793-.513-.678-1.115-1.28-1.792-1.792-.513-.678-1.116-1.28-1.793-1.794-.512-.677-1.114-1.278-1.79-1.79-.514-.68-1.117-1.28-1.794-1.795-.512-.678-1.115-1.28-1.792-1.793-.512-.676-1.114-1.278-1.79-1.79-1.684-2.224-4.344-3.666-7.347-3.666h-120.61c-5.09 0-9.217 4.124-9.217 9.218V-361.498h-17.296v3.295c0 1.092.784 2.03 1.928 2.526.26.773.916 1.413 1.793 1.793.26.772.916 1.412 1.792 1.792.26.773.916 1.413 1.793 1.793.26.773.916 1.414 1.792 1.794.26.772.917 1.413 1.793 1.792.26.773.916 1.412 1.792 1.792.26.773.916 1.413 1.793 1.793.26.774.916 1.414 1.792 1.794.26.772.916 1.412 1.792 1.792.26.773.916 1.413 1.793 1.793.26.772.916 1.412 1.792 1.792.26.772.917 1.413 1.793 1.792.26.772.916 1.413 1.792 1.793.26.772.917 1.412 1.793 1.792.26.772.916 1.412 1.792 1.792.26.773.917 1.413 1.793 1.793.26.772.916 1.412 1.792 1.792.26.773.916 1.413 1.793 1.793.26.772.916 1.412 1.792 1.792.26.773.917 1.413 1.793 1.793.26.773.916 1.412 1.792 1.792.26.773.916 1.413 1.793 1.793.26.772.916 1.412 1.792 1.792.26.773.916 1.413 1.793 1.793.26.773.916 1.413 1.792 1.793.26.772.916 1.412 1.792 1.792.26.773.915 1.413 1.79 1.793.262.772.917 1.412 1.793 1.792.26.773.916 1.413 1.793 1.793.26.773.916 1.413 1.792 1.792.26.773.916 1.413 1.792 1.793.26.773.916 1.413 1.793 1.793.26.772.916 1.413 1.792 1.792.26.773.916 1.413 1.792 1.793.26.774.916 1.414 1.793 1.794.26.773.916 1.413 1.792 1.792.26.773.916 1.413 1.792 1.792.26.773.916 1.413 1.793 1.793.26.774.916 1.414 1.792 1.794.26.773.916 1.413 1.792 1.793.26.773.916 1.413 1.792 1.793.26.77.916 1.41 1.792 1.79.26.774.916 1.414 1.793 1.794.26.773.915 1.413 1.79 1.793.26.773.917 1.412 1.793 1.793.26.772.916 1.412 1.792 1.792.085.25.225.48.387.7h130.043v-111.47z"/><path fill="#eee" d="M-811.483-358.203c0 1.604 1.673 2.903 3.73 2.903h166.17c2.06 0 3.732-1.3 3.732-2.903v-3.296h-173.634v3.297z"/><path fill="#ccc" d="M-733.985-359.893h18.64c1.136 0 2.06-.72 2.06-1.606h-22.762c0 .89.923 1.607 2.062 1.607zM-807.75-355.3h166.167c2.06 0 3.733-1.3 3.733-2.903h-173.633c0 1.604 1.673 2.903 3.732 2.903z"/><path fill="#1D1E1F" d="M-664.364-447.916H-784.97c-5.09 0-9.217 4.124-9.217 9.218V-361.498h139.04v-77.2c0-5.094-4.126-9.218-9.217-9.218z"/><path fill="#E2725A" d="M-784.97-438.698h120.605v67.98H-784.97z"/><g fill="#fff"><path d="M-745.22-421.647l-16.947 16.94 16.946 16.937 4.066-4.062-12.877-12.876 12.876-12.877zM-708.18-417.585l12.877 12.877-12.877 12.876 4.068 4.062 16.945-16.938-16.945-16.94zM-737.085-387.77h5.75l17.933-33.21h-5.75z"/></g><path fill="#eee" d="M-1084.816-358.203c0 1.604 1.673 2.903 3.73 2.903h166.17c2.06 0 3.732-1.3 3.732-2.903v-3.296h-173.633v3.297z"/><path fill="#ccc" d="M-1007.318-359.893h18.64c1.136 0 2.06-.72 2.06-1.606h-22.762c0 .89.923 1.607 2.062 1.607zM-1081.084-355.3h166.168c2.06 0 3.733-1.3 3.733-2.903h-173.633c0 1.604 1.673 2.903 3.732 2.903z"/><path fill="#1D1E1F" d="M-937.697-447.916h-120.605c-5.09 0-9.217 4.124-9.217 9.218V-361.498h139.04v-77.2c0-5.094-4.126-9.218-9.217-9.218z"/><path fill="#E2725A" d="M-1058.303-438.698h120.605v67.98h-120.605z"/><g fill="#fff"><path d="M-1018.554-421.647l-16.946 16.94 16.946 16.937 4.067-4.062-12.877-12.876 12.877-12.877zM-981.513-417.585l12.877 12.877-12.877 12.876 4.068 4.062 16.945-16.938-16.945-16.94zM-1010.418-387.77h5.75l17.933-33.21h-5.75z"/></g><path fill="#eee" d="M-1084.816-358.203c0 1.604 1.673 2.903 3.73 2.903h166.17c2.06 0 3.732-1.3 3.732-2.903v-3.296h-173.633v3.297z"/><path fill="#ccc" d="M-1007.318-359.893h18.64c1.136 0 2.06-.72 2.06-1.606h-22.762c0 .89.923 1.607 2.062 1.607zM-1081.084-355.3h166.168c2.06 0 3.733-1.3 3.733-2.903h-173.633c0 1.604 1.673 2.903 3.732 2.903z"/><path fill="#fff" stroke="#3D4C99" stroke-width="2" stroke-miterlimit="10" d="M-352.766 9.55h-234.47c-3.172 0-5.765 2.592-5.765 5.765v9.488H-347v-9.488c0-3.173-2.593-5.766-5.766-5.766z"/><path fill="#1D1E1F" d="M-937.697-447.916h-120.605c-5.09 0-9.217 4.124-9.217 9.218V-361.498h139.04v-77.2c0-5.094-4.126-9.218-9.217-9.218z"/><path fill="#E2725A" d="M-1058.303-438.698h120.605v67.98h-120.605z"/><g fill="#fff"><path d="M-1018.554-421.647l-16.946 16.94 16.946 16.937 4.067-4.062-12.877-12.876 12.877-12.877zM-981.513-417.585l12.877 12.877-12.877 12.876 4.068 4.062 16.945-16.938-16.945-16.94zM-1010.418-387.77h5.75l17.933-33.21h-5.75z"/></g><path fill="#fff" stroke="#3D4C99" stroke-width="2" stroke-miterlimit="10" d="M-352.766 24.803H-593v132.729c0 3.173 2.593 5.766 5.766 5.766h234.47c3.17 0 5.765-2.594 5.765-5.767V24.802h-5.766zM-577.367 39.116h215.253v49.97h-215.253zM-577.367 101.263h65.344v46.92h-65.344zM-427.458 101.263h65.344v46.92h-65.344zM-502.893 101.263h66.305v46.92h-66.305zM-582.042 17.423c0 1.6-1.29 2.884-2.883 2.884s-2.883-1.285-2.883-2.884c0-1.59 1.29-2.883 2.883-2.883 1.594 0 2.883 1.294 2.883 2.883zM-572.09 17.423c0 1.6-1.29 2.884-2.883 2.884s-2.882-1.285-2.882-2.884c0-1.59 1.29-2.883 2.882-2.883 1.593 0 2.883 1.294 2.883 2.883zM-562.14 17.423c0 1.6-1.29 2.884-2.883 2.884s-2.883-1.285-2.883-2.884c0-1.59 1.29-2.883 2.883-2.883 1.594 0 2.883 1.294 2.883 2.883z"/><g fill="#fff" stroke="#45A6DD" stroke-width="2" stroke-miterlimit="10"><path d="M125.75 147.358c0 2.16-1.77 3.932-3.93 3.932H76.656c-2.158 0-3.93-1.77-3.93-3.932V50.69c0-2.162 1.77-3.928 3.93-3.928h45.166c2.16 0 3.93 1.766 3.93 3.928v96.668zM129.9 144.48c0 2.483-2.034 4.52-4.52 4.52H73.45c-2.484 0-4.518-2.036-4.518-4.52V33.33c0-2.483 2.033-4.515 4.518-4.515h51.932c2.484 0 4.52 2.03 4.52 4.516v111.15zM82.176 42.31h33.233M82.176 46.57h33.233M82.176 50.833h33.233"/><path d="M82.176 113.507h33.232v4.52H82.176zM82.176 125.753h33.232v4.518H82.176zM82.176 101.263h33.232v4.518H82.176zM227.096 147.358c0 2.16-1.77 3.932-3.93 3.932H178c-2.158 0-3.93-1.77-3.93-3.932V50.69c0-2.162 1.77-3.928 3.93-3.928h45.166c2.158 0 3.93 1.766 3.93 3.928v96.668zM231.067 144.48c0 2.483-2.033 4.52-4.518 4.52h-51.933c-2.484 0-4.518-2.036-4.518-4.52V33.33c0-2.483 2.032-4.515 4.517-4.515h51.932c2.483 0 4.517 2.03 4.517 4.516v111.15zM183.342 42.31h33.233M183.342 46.57h33.233M183.342 50.833h33.233"/><path d="M184.41 113.507h33.23v4.52h-33.23zM184.41 125.753h33.23v4.518h-33.23zM184.41 101.263h33.23v4.518h-33.23zM186.223 165.3c0 2.95-2.418 5.37-5.37 5.37h-61.708c-2.95 0-5.37-2.42-5.37-5.37V33.216c0-2.95 2.42-5.363 5.37-5.363h61.71c2.95 0 5.368 2.412 5.368 5.363V165.3zM191.407 160.44c0 3.373-2.762 6.14-6.137 6.14h-70.54c-3.374 0-6.138-2.767-6.138-6.14V9.462c0-3.375 2.764-6.133 6.14-6.133h70.538c3.375 0 6.137 2.757 6.137 6.132V160.44zM126.58 22.724h45.143M126.58 28.05h45.143M126.58 33.378h45.143"/><path d="M126.58 119.433h45.144v6.14H126.58zM126.58 136.065h45.144v6.14H126.58zM149.15 53.745c5.72 0 10.355 4.637 10.355 10.354 0 5.722-4.635 10.35-10.354 10.35S138.8 69.823 138.8 64.1c0-5.718 4.632-10.355 10.35-10.355zM143.59 63.868l3.866 3.86 7.253-7.258"/></g><path fill="#fff" stroke="#F0634A" stroke-width="2" stroke-miterlimit="10" d="M-724.282 143.564c-31.24 31.246-81.895 31.246-113.134 0-31.244-31.234-31.244-81.895 0-113.13 31.24-31.245 81.896-31.245 113.134 0 31.244 31.236 31.244 81.896 0 113.13zM-732.195 135.657c-26.87 26.876-70.438 26.876-97.308 0-26.874-26.868-26.874-70.446 0-97.314 26.87-26.876 70.438-26.876 97.308 0 26.874 26.868 26.874 70.446 0 97.314zM-737.84 87c-23.754 0-43.01-19.262-43.01-43.008 0 23.746-19.253 43.008-43.008 43.008 23.754 0 43.007 19.26 43.01 43.01 0-23.75 19.254-43.01 43.008-43.01zM-817.34 123.488l43.79-29.19-14.598-14.59zM-744.356 50.51l-43.792 29.195 14.6 14.59zM-775.842 87c0 2.76-2.24 5.007-5.006 5.007s-5.006-2.246-5.006-5.006c0-2.76 2.24-5.006 5.006-5.006s5.006 2.246 5.006 5.007zM-732.194 38.347l-3.142 3.143M-826.362 132.51l-3.142 3.143M-735.335 132.51l3.142 3.143M-829.504 38.347L-825.85 42M-780.85 20.277v8.62M-780.85 145.414v8.622M-720.93 87h8.89M-849.658 87h8.89"/></svg>