<svg xmlns="http://www.w3.org/2000/svg" width="150" height="87" viewBox="0 0 300 174">
  <path stroke="#45A6DD" stroke-width="2" stroke-miterlimit="10" d="M76.655 151.29h31.938V149H73.098c.627 1.345 1.985 2.29 3.557 2.29zM73.45 28.815c-2.484 0-4.518 2.03-4.518 4.516v111.15c0 2.483 2.033 4.52 4.518 4.52h35.143V28.814H73.45zM82.176 42.31h26.416M82.176 46.57h26.416M82.176 50.833h26.416" fill="none"/>

  <path stroke="#45A6DD" stroke-width="2" stroke-miterlimit="10" fill="none" d="M82.176 113.507h26.416v4.52H82.176zM82.176 125.753h26.416v4.518H82.176zM82.176 101.263h26.416v4.518H82.176zM191.407 149v2.29h31.76c1.572 0 2.93-.945 3.557-2.29h-35.317zM231.067 144.48V33.33c0-2.483-2.033-4.515-4.518-4.515h-35.144V149h35.143c2.484 0 4.517-2.036 4.517-4.52zM191.407 42.31h25.168M191.407 46.57h25.168M191.407 50.833h25.168"/>

  <path stroke="#45A6DD" stroke-width="2" stroke-miterlimit="10" fill="none" d="M191.407 113.507h26.234v4.52h-26.233zM191.407 125.753h26.234v4.518h-26.233zM191.407 101.263h26.234v4.518h-26.233zM113.95 166.58c.58 2.335 2.687 4.09 5.195 4.09h61.71c2.507 0 4.614-1.755 5.195-4.09h-72.1zM185.27 3.33h-70.54c-3.374 0-6.138 2.757-6.138 6.132V160.44c0 3.373 2.764 6.14 6.14 6.14h70.538c3.375 0 6.137-2.767 6.137-6.14V9.462c0-3.375-2.762-6.133-6.137-6.133zM126.58 22.724h45.143M126.58 28.05h45.143M126.58 33.378h45.143"/>

  <path stroke="#45A6DD" stroke-width="2" stroke-miterlimit="10" fill="none" d="M126.58 119.433h45.144v6.14H126.58zM126.58 136.065h45.144v6.14H126.58zM149.15 53.745c5.72 0 10.355 4.637 10.355 10.354 0 5.722-4.635 10.35-10.354 10.35S138.8 69.823 138.8 64.1c0-5.718 4.632-10.355 10.35-10.355zM143.59 63.868l3.866 3.86 7.253-7.258"/>
</svg>
