<?xml version="1.0" encoding="utf-8"?>
<!-- Generator: Adobe Illustrator 16.0.4, SVG Export Plug-In . SVG Version: 6.00 Build 0)  -->
<!DOCTYPE svg PUBLIC "-//W3C//DTD SVG 1.1//EN" "http://www.w3.org/Graphics/SVG/1.1/DTD/svg11.dtd">
<svg version="1.1" id="Layer_1" xmlns="http://www.w3.org/2000/svg" xmlns:xlink="http://www.w3.org/1999/xlink" x="0px" y="0px"
	 width="150px" height="87px" viewBox="0 0 150 87" enable-background="new 0 0 150 87" xml:space="preserve">
<path fill="none" stroke="#9C9496" stroke-miterlimit="10" d="M136.5,12.69V9.807V9V7.946c0-1.587-1.296-2.883-2.883-2.883H16.383
	c-1.586,0-2.883,1.296-2.883,2.883V9v0.808v2.883"/>
<path fill="none" stroke="#9C9496" stroke-miterlimit="10" d="M133.617,12.69H16.383H13.5v2.883v45.733v17.748
	c0,1.586,1.296,2.883,2.883,2.883h117.234c1.587,0,2.883-1.297,2.883-2.883V61.307V15.573V12.69H133.617z"/>
<rect x="18.679" y="17.854" fill="none" stroke="#9C9496" stroke-width="0.5" stroke-miterlimit="10" width="112.657" height="25.646"/>
<rect x="18.679" y="47.312" fill="none" stroke="#9C9496" stroke-width="0.5" stroke-miterlimit="10" width="28.165" height="29.461"/>
<g>
	<path fill="#9C9496" d="M17.538,8.058c0.519,0,0.941,0.422,0.941,0.941c0,0.52-0.422,0.942-0.941,0.942S16.597,9.519,16.597,9
		C16.597,8.48,17.019,8.058,17.538,8.058 M17.538,7.558c-0.796,0-1.441,0.647-1.441,1.441c0,0.8,0.645,1.442,1.441,1.442
		c0.797,0,1.441-0.643,1.441-1.442C18.979,8.206,18.335,7.558,17.538,7.558L17.538,7.558z"/>
</g>
<g>
	<path fill="#9C9496" d="M22.514,8.058c0.519,0,0.941,0.422,0.941,0.941c0,0.52-0.422,0.942-0.941,0.942S21.572,9.519,21.572,9
		C21.572,8.48,21.995,8.058,22.514,8.058 M22.514,7.558c-0.797,0-1.441,0.647-1.441,1.441c0,0.8,0.645,1.442,1.441,1.442
		c0.796,0,1.441-0.642,1.441-1.441C23.955,8.206,23.311,7.558,22.514,7.558L22.514,7.558z"/>
</g>
<g>
	<path fill="#9C9496" d="M27.489,8.058c0.519,0,0.941,0.422,0.941,0.941c0,0.52-0.422,0.942-0.941,0.942
		c-0.52,0-0.941-0.422-0.941-0.941C26.548,8.48,26.97,8.058,27.489,8.058 M27.489,7.558c-0.797,0-1.441,0.647-1.441,1.441
		c0,0.8,0.645,1.442,1.441,1.442c0.796,0,1.442-0.642,1.442-1.441C28.931,8.206,28.286,7.558,27.489,7.558L27.489,7.558z"/>
</g>
<line fill="none" stroke="#9C9496" stroke-width="0.5" stroke-miterlimit="10" x1="50.416" y1="47.312" x2="129.381" y2="47.312"/>
<line fill="none" stroke="#9C9496" stroke-width="0.5" stroke-miterlimit="10" x1="50.416" y1="50.469" x2="123.615" y2="50.469"/>
<line fill="none" stroke="#9C9496" stroke-width="0.5" stroke-miterlimit="10" x1="50.416" y1="53.623" x2="127.939" y2="53.623"/>
<line fill="none" stroke="#9C9496" stroke-width="0.5" stroke-miterlimit="10" x1="50.416" y1="56.777" x2="125.923" y2="56.777"/>
<line fill="none" stroke="#9C9496" stroke-width="0.5" stroke-miterlimit="10" x1="50.416" y1="59.932" x2="130.246" y2="59.932"/>
<line fill="none" stroke="#9C9496" stroke-width="0.5" stroke-miterlimit="10" x1="50.416" y1="63.088" x2="131.336" y2="63.088"/>
<line fill="none" stroke="#9C9496" stroke-width="0.5" stroke-miterlimit="10" x1="50.416" y1="66.242" x2="127.939" y2="66.242"/>
<line fill="none" stroke="#9C9496" stroke-width="0.5" stroke-miterlimit="10" x1="50.416" y1="69.396" x2="125.923" y2="69.396"/>
<line fill="none" stroke="#9C9496" stroke-width="0.5" stroke-miterlimit="10" x1="50.416" y1="72.551" x2="129.381" y2="72.551"/>
<line fill="none" stroke="#9C9496" stroke-width="0.5" stroke-miterlimit="10" x1="50.416" y1="75.707" x2="117.495" y2="75.707"/>
</svg>
