<svg xmlns="http://www.w3.org/2000/svg" width="150" height="87" viewBox="0 0 300 174">
  <path stroke="#3D4C99" stroke-width="2" stroke-miterlimit="10" d="M267.234 9.55H32.766C29.593 9.55 27 12.14 27 15.314v9.488h246v-9.488c0-3.173-2.593-5.766-5.766-5.766z" fill="none"/>

  <path stroke="#3D4C99" stroke-width="2" stroke-miterlimit="10" d="M267.234 24.803H27v132.729c0 3.173 2.593 5.766 5.766 5.766h234.47c3.17 0 5.765-2.594 5.765-5.767V24.802h-5.766zM42.633 39.116h215.253v49.97H42.633zM42.633 101.263h65.344v46.92H42.633zM192.542 101.263h65.344v46.92h-65.344zM117.107 101.263h66.305v46.92h-66.305zM37.958 17.423c0 1.6-1.29 2.884-2.883 2.884s-2.883-1.285-2.883-2.884c0-1.59 1.29-2.883 2.883-2.883 1.594 0 2.883 1.294 2.883 2.883zM47.91 17.423c0 1.6-1.29 2.884-2.883 2.884s-2.882-1.285-2.882-2.884c0-1.59 1.29-2.883 2.882-2.883 1.593 0 2.883 1.294 2.883 2.883zM57.86 17.423c0 1.6-1.29 2.884-2.883 2.884s-2.883-1.285-2.883-2.884c0-1.59 1.29-2.883 2.883-2.883 1.594 0 2.883 1.294 2.883 2.883z" fill="none"/>
</svg>
