<svg xmlns="http://www.w3.org/2000/svg" width="150" height="87" viewBox="0 0 300 174">
  <path class="inner-stroke" stroke="#F0634A" stroke-width="2" stroke-miterlimit="10" fill="none" d="M114.15 121.995l28.003-41.992 41.998-28-27.994 42zM149.15 157.81c-39.106 0-70.81-31.703-70.81-70.81s31.704-70.81 70.81-70.81M149.15 168c-44.733 0-80.998-36.266-80.998-81s36.265-81 81-81M141.93 79.78l3.686 3.686M156.52 94.368l-3.83-3.832M149.153 82c2.76 0 5 2.24 5 5 0 2.762-2.238 5-5 5M99.08 137.07l4.243-4.244M194.978 41.172l4.243-4.243M199.222 137.07l-4.243-4.244M103.323 41.172L99.08 36.93M78.34 87h8M211.96 87h8M149.15 157.81v-8M149.15 24.19v-8M149.15 168c44.736 0 81-36.266 81-81S193.888 6.002 149.154 6M149.15 16.19c39.108 0 70.81 31.7 70.81 70.81s-31.702 70.81-70.81 70.81M149.153 92.002c-2.762 0-5-2.24-5-5 0-2.762 2.24-5 5-5 M158.866 69.564c-5.458-7.09-8.714-15.955-8.714-25.572h-2c0 23.095-18.734 41.897-41.805 42.008h-.204v2c9.616 0 18.482 3.257 25.57 8.714M139.426 104.444c5.46 7.087 8.725 15.946 8.726 25.564h2c0-23.095 18.735-41.897 41.805-42.008h.203v-2c-9.617 0-18.477-3.264-25.562-8.724"/>
</svg>
