<svg xmlns="http://www.w3.org/2000/svg" width="150" height="87" viewBox="0 0 300 174">
  <path stroke="#F68C44" stroke-width="2" stroke-miterlimit="10" d="M258.333 9.586H41.667c-3.178 0-5.777 2.6-5.777 5.776V151.47h228.22V15.36c0-3.176-2.6-5.776-5.777-5.776z" fill="none"/>

  <path stroke="#F68C44" stroke-width="2" stroke-miterlimit="10" d="M7.5 157.702c0 3.066 2.76 5.56 6.124 5.56h272.75c3.365 0 6.126-2.493 6.126-5.56v-6.232H7.5v6.232zM134.968 154.484h30.065c1.812 0 3.307-1.357 3.307-3.015h-36.68c0 1.657 1.496 3.014 3.308 3.014zM13.625 163.26h272.75c3.365 0 6.126-2.49 6.126-5.558H7.5c0 3.067 2.76 5.56 6.125 5.56zM46.22 19.86h207.56v121.225H46.22z" fill="none"/>

  <g stroke="#F68C44" stroke-width="2" stroke-miterlimit="10" fill="none">
    <path d="M126.51 62.167l-5.78-5.802-24.168 24.16 24.167 24.162 5.78-5.8-18.36-18.36zM203.438 80.526l-24.167-24.16-5.78 5.8 18.36 18.36-18.36 18.36 5.78 5.8zM166.05 57.296l-25.555 47.39h-8.178l25.53-47.39z"/>
  </g>
</svg>
