<?xml version="1.0" encoding="utf-8"?>
<!-- Generator: Adobe Illustrator 16.0.4, SVG Export Plug-In . SVG Version: 6.00 Build 0)  -->
<!DOCTYPE svg PUBLIC "-//W3C//DTD SVG 1.1//EN" "http://www.w3.org/Graphics/SVG/1.1/DTD/svg11.dtd">
<svg version="1.1" id="Layer_1" xmlns="http://www.w3.org/2000/svg" xmlns:xlink="http://www.w3.org/1999/xlink" x="0px" y="0px"
	 width="150px" height="87px" viewBox="0 0 150 87" enable-background="new 0 0 150 87" xml:space="preserve">
<g>
	<path fill="none" stroke="#9C9496" stroke-miterlimit="10" d="M57.075,60.998l14.001-20.997l20.999-14l-13.997,21L57.075,60.998z
		 M74.575,84c-22.367,0-40.499-18.133-40.499-40.5S52.208,3,74.576,3 M74.577,41c1.38,0,2.5,1.12,2.5,2.5c0,1.381-1.119,2.5-2.5,2.5
		 M74.575,84c22.368,0,40.5-18.133,40.5-40.5S96.943,3.001,74.577,3 M74.577,46.001c-1.381,0-2.5-1.12-2.5-2.5
		c0-1.381,1.12-2.5,2.5-2.5"/>
</g>
<g>
	<path fill="none" stroke="#9C9496" stroke-width="0.5" stroke-miterlimit="10" d="M49.54,68.535l2.122-2.122 M97.489,20.586
		l2.12-2.122 M99.611,68.535l-2.122-2.122 M51.662,20.586l-2.122-2.121 M39.17,43.5h4 M105.98,43.5h4 M74.575,78.905v-4
		 M74.575,12.095v-4 M79.434,34.782c-2.729-3.545-4.355-7.979-4.355-12.786h-1c0,11.547-9.367,20.948-20.903,21.004h-0.102v1
		c4.808,0,9.241,1.629,12.785,4.357 M69.713,52.223c2.73,3.543,4.362,7.975,4.363,12.781h1c0-11.547,9.367-20.947,20.902-21.004
		h0.102v-1c-4.809,0-9.238-1.632-12.781-4.362"/>
</g>
<g>
	<circle fill="#9C9496" cx="54.146" cy="43.5" r="0.25"/>
	<circle fill="#9C9496" cx="56.646" cy="43.5" r="0.25"/>
	<circle fill="#9C9496" cx="59.146" cy="43.5" r="0.25"/>
	<circle fill="#9C9496" cx="61.646" cy="43.5" r="0.25"/>
	<circle fill="#9C9496" cx="64.146" cy="41" r="0.25"/>
	<circle fill="#9C9496" cx="64.146" cy="43.5" r="0.25"/>
	<circle fill="#9C9496" cx="66.646" cy="38.5" r="0.25"/>
	<circle fill="#9C9496" cx="66.646" cy="41" r="0.25"/>
	<circle fill="#9C9496" cx="66.646" cy="43.5" r="0.25"/>
	<circle fill="#9C9496" cx="69.146" cy="36" r="0.25"/>
	<circle fill="#9C9496" cx="69.146" cy="38.5" r="0.25"/>
	<circle fill="#9C9496" cx="69.146" cy="41" r="0.25"/>
	<circle fill="#9C9496" cx="71.646" cy="33.5" r="0.25"/>
	<circle fill="#9C9496" cx="71.646" cy="36" r="0.25"/>
	<circle fill="#9C9496" cx="71.646" cy="38.5" r="0.25"/>
	<circle fill="#9C9496" cx="74.146" cy="23.5" r="0.25"/>
	<circle fill="#9C9496" cx="74.146" cy="26" r="0.25"/>
	<circle fill="#9C9496" cx="74.146" cy="28.5" r="0.25"/>
	<circle fill="#9C9496" cx="74.146" cy="31" r="0.25"/>
	<circle fill="#9C9496" cx="74.146" cy="33.5" r="0.25"/>
	<circle fill="#9C9496" cx="74.146" cy="36" r="0.25"/>
	<circle fill="#9C9496" cx="76.646" cy="31" r="0.25"/>
	<circle fill="#9C9496" cx="76.646" cy="33.5" r="0.25"/>
	<circle fill="#9C9496" cx="81.646" cy="43.5" r="0.25"/>
	<circle fill="#9C9496" cx="84.146" cy="41" r="0.25"/>
	<circle fill="#9C9496" cx="84.146" cy="43.5" r="0.25"/>
	<circle fill="#9C9496" cx="86.646" cy="41" r="0.25"/>
	<circle fill="#9C9496" cx="86.646" cy="43.5" r="0.25"/>
	<circle fill="#9C9496" cx="89.146" cy="43.5" r="0.25"/>
	<circle fill="#9C9496" cx="91.646" cy="43.5" r="0.25"/>
	<circle fill="#9C9496" cx="94.146" cy="43.5" r="0.25"/>
	<circle fill="#9C9496" cx="64.146" cy="46" r="0.25"/>
	<circle fill="#9C9496" cx="66.646" cy="46" r="0.25"/>
	<circle fill="#9C9496" cx="71.646" cy="53.5" r="0.25"/>
	<circle fill="#9C9496" cx="74.146" cy="51" r="0.25"/>
	<circle fill="#9C9496" cx="74.146" cy="53.5" r="0.25"/>
	<circle fill="#9C9496" cx="74.146" cy="56" r="0.25"/>
	<circle fill="#9C9496" cx="74.146" cy="58.5" r="0.25"/>
	<circle fill="#9C9496" cx="74.146" cy="61" r="0.25"/>
	<circle fill="#9C9496" cx="74.146" cy="63.5" r="0.25"/>
	<circle fill="#9C9496" cx="76.646" cy="48.5" r="0.25"/>
	<circle fill="#9C9496" cx="76.646" cy="51" r="0.25"/>
	<circle fill="#9C9496" cx="76.646" cy="53.5" r="0.25"/>
	<circle fill="#9C9496" cx="76.646" cy="56" r="0.25"/>
	<circle fill="#9C9496" cx="79.146" cy="46" r="0.25"/>
	<circle fill="#9C9496" cx="79.146" cy="48.5" r="0.25"/>
	<circle fill="#9C9496" cx="79.146" cy="51" r="0.25"/>
	<circle fill="#9C9496" cx="81.646" cy="46" r="0.25"/>
	<circle fill="#9C9496" cx="81.646" cy="48.5" r="0.25"/>
	<circle fill="#9C9496" cx="84.146" cy="46" r="0.25"/>
	<circle fill="#9C9496" cx="86.646" cy="46" r="0.25"/>
</g>
<path fill="none" stroke="#9C9496" stroke-width="0.5" stroke-miterlimit="10" d="M74.575,78.905
	c-19.553,0-35.405-15.854-35.405-35.405S55.022,8.095,74.575,8.095"/>
<path fill="none" stroke="#9C9496" stroke-width="0.5" stroke-miterlimit="10" d="M74.575,8.095
	c19.554,0,35.405,15.85,35.405,35.405c0,19.555-15.854,35.405-35.405,35.405"/>
</svg>
